<?xml version="1.0" encoding="UTF-8"?>
<svg version="1.1" xmlns="http://www.w3.org/2000/svg" width="500" height="500">
<path d="M0 0 C1.25313492 -0.01506844 1.25313492 -0.01506844 2.53158569 -0.03044128 C3.4448764 -0.03627228 4.35816711 -0.04210327 5.2991333 -0.04811096 C6.74595993 -0.06278664 6.74595993 -0.06278664 8.22201538 -0.07775879 C11.41860575 -0.10770789 14.61515431 -0.12909661 17.81182861 -0.14796448 C18.90359657 -0.1545363 19.99536453 -0.16110813 21.12021637 -0.1678791 C26.89891769 -0.20047016 32.67760058 -0.22492201 38.45635986 -0.24440002 C43.23853363 -0.26221664 48.02011815 -0.2970438 52.80206299 -0.34693909 C58.57626724 -0.40711785 64.34992487 -0.43787269 70.1244278 -0.44757271 C72.32366545 -0.45613208 74.52288832 -0.4749619 76.72194672 -0.50431633 C79.80301052 -0.54323069 82.88194455 -0.54426518 85.9631958 -0.53639221 C86.86838959 -0.55639282 87.77358337 -0.57639343 88.70620728 -0.59700012 C94.461189 -0.53111645 97.44444325 0.67219907 101.61003494 4.67732143 C103.99846646 7.44529355 104.02233245 9.42890847 104.048172 12.99476624 C104.05796082 14.0156282 104.06774963 15.03649017 104.07783508 16.08828735 C104.08359055 17.21253616 104.08934601 18.33678497 104.09527588 19.49510193 C104.10517548 20.67557602 104.11507507 21.85605011 104.12527466 23.07229614 C104.15149518 26.31379709 104.17334372 29.55529271 104.19327664 32.79683733 C104.21512209 36.18280742 104.24251782 39.56873241 104.26933289 42.95466614 C104.3192793 49.36840655 104.36421088 55.78217197 104.40735525 62.19596136 C104.45671099 69.49698681 104.51163528 76.79796701 104.56703484 84.09894872 C104.68088479 99.11946674 104.78771726 114.14002737 104.88995361 129.16062927 C105.98307861 128.66562927 107.07620361 128.17062927 108.20245361 127.66062927 C111.88995361 126.16062927 111.88995361 126.16062927 114.88995361 126.16062927 C114.88995361 125.50062927 114.88995361 124.84062927 114.88995361 124.16062927 C117.9486387 123.14869298 121.01244632 122.15323557 124.07745361 121.16062927 C124.94177002 120.8744574 125.80608643 120.58828552 126.69659424 120.29344177 C127.53770752 120.02273865 128.3788208 119.75203552 129.24542236 119.47312927 C130.01523438 119.22176208 130.78504639 118.9703949 131.57818604 118.71141052 C134.08791948 118.11346368 136.31918357 118.06519465 138.88995361 118.16062927 C138.88995361 117.50062927 138.88995361 116.84062927 138.88995361 116.16062927 C150.89583833 114.06520044 162.70116162 112.48530298 174.88995361 112.16062927 C175.64292725 112.13871521 176.39590088 112.11680115 177.17169189 112.09422302 C187.47515892 111.83701145 197.67763344 112.23862904 207.95245361 113.03562927 C208.97468018 113.11402039 209.99690674 113.1924115 211.05010986 113.2731781 C217.75337927 113.84214864 224.29447894 114.8394269 230.88995361 116.16062927 C230.88995361 116.82062927 230.88995361 117.48062927 230.88995361 118.16062927 C232.08620361 118.24312927 233.28245361 118.32562927 234.51495361 118.41062927 C242.19005929 119.24169167 249.5903935 121.72744257 256.88995361 124.16062927 C256.88995361 124.82062927 256.88995361 125.48062927 256.88995361 126.16062927 C258.18159424 126.33078552 258.18159424 126.33078552 259.49932861 126.50437927 C262.98821913 127.17964841 265.88310293 128.25314606 269.13995361 129.66062927 C270.17635986 130.10406677 271.21276611 130.54750427 272.28057861 131.00437927 C273.83140762 131.69157296 275.37277049 132.40203771 276.88995361 133.16062927 C276.88995361 133.82062927 276.88995361 134.48062927 276.88995361 135.16062927 C277.47003174 135.33078552 278.05010986 135.50094177 278.64776611 135.67625427 C283.67036411 137.23441999 287.75684332 138.87533647 291.88995361 142.16062927 C291.88995361 142.82062927 291.88995361 143.48062927 291.88995361 144.16062927 C292.54995361 144.38750427 293.20995361 144.61437927 293.88995361 144.84812927 C300.17194218 147.59649927 305.22231262 151.1145309 309.88995361 156.16062927 C312.80026946 159.1496023 315.78483952 161.95055944 318.95245361 164.66062927 C321.98183181 167.28078565 324.46663216 169.95838307 326.88995361 173.16062927 C327.52932861 173.77937927 328.16870361 174.39812927 328.82745361 175.03562927 C331.07851605 177.35490572 332.83184261 179.80950848 334.64385986 182.47703552 C335.83838188 184.1887307 335.83838188 184.1887307 337.34307861 185.55906677 C339.30791995 187.59337219 340.62989377 189.79623265 342.07745361 192.22312927 C342.6072583 193.10098083 343.13706299 193.9788324 343.68292236 194.88328552 C344.88995361 197.16062927 344.88995361 197.16062927 344.88995361 199.16062927 C345.54995361 199.16062927 346.20995361 199.16062927 346.88995361 199.16062927 C347.89727761 201.09433158 348.8955865 203.03273233 349.88995361 204.97312927 C350.72526611 206.59154724 350.72526611 206.59154724 351.57745361 208.24266052 C352.88995361 211.16062927 352.88995361 211.16062927 352.88995361 214.16062927 C353.54995361 214.16062927 354.20995361 214.16062927 354.88995361 214.16062927 C355.88006804 216.34372562 356.85700929 218.53130194 357.82745361 220.72312927 C358.10524658 221.3322113 358.38303955 221.94129333 358.66925049 222.5688324 C360.52587145 226.79655964 361.4226044 230.56404269 361.88995361 235.16062927 C362.54995361 235.16062927 363.20995361 235.16062927 363.88995361 235.16062927 C364.87450367 239.18016385 365.851626 243.20146902 366.82745361 247.22312927 C367.10524658 248.35685974 367.38303955 249.49059021 367.66925049 250.65867615 C371.06631488 264.69714706 371.06631488 264.69714706 370.95245361 272.09812927 C370.94343018 272.87027771 370.93440674 273.64242615 370.92510986 274.43797302 C370.90770752 275.29068787 370.90770752 275.29068787 370.88995361 276.16062927 C371.54995361 276.16062927 372.20995361 276.16062927 372.88995361 276.16062927 C373.73420781 286.05898088 374.04434822 295.85025064 374.01495361 305.78562927 C374.0188208 307.10047302 374.02268799 308.41531677 374.02667236 309.77000427 C374.01887084 317.61833757 373.69287452 325.35272647 372.88995361 333.16062927 C372.22995361 333.16062927 371.56995361 333.16062927 370.88995361 333.16062927 C370.87577393 333.92762146 370.86159424 334.69461365 370.84698486 335.48484802 C370.12874331 352.19852303 365.54996152 367.90647417 358.88995361 383.16062927 C358.09108756 385.13690097 357.29849844 387.11573317 356.51495361 389.09812927 C355.97328695 390.45229594 355.43162028 391.80646261 354.88995361 393.16062927 C354.22995361 393.16062927 353.56995361 393.16062927 352.88995361 393.16062927 C352.64245361 394.15062927 352.39495361 395.14062927 352.13995361 396.16062927 C350.2926301 402.57422429 347.68366603 407.51218087 342.88995361 412.16062927 C341.54386233 414.25906764 340.2777948 416.38821854 339.03839111 418.55125427 C338.46991455 419.3478949 338.46991455 419.3478949 337.88995361 420.16062927 C337.22995361 420.16062927 336.56995361 420.16062927 335.88995361 420.16062927 C335.54964111 421.21250427 335.54964111 421.21250427 335.20245361 422.28562927 C333.55154074 425.90191462 331.59907011 428.24832904 328.88995361 431.16062927 C328.22995361 431.16062927 327.56995361 431.16062927 326.88995361 431.16062927 C326.54964111 431.99594177 326.54964111 431.99594177 326.20245361 432.84812927 C324.51445325 435.82222515 322.42318845 437.88071792 319.88995361 440.16062927 C319.22995361 440.16062927 318.56995361 440.16062927 317.88995361 440.16062927 C317.58057861 440.99594177 317.58057861 440.99594177 317.26495361 441.84812927 C315.71984363 444.44672333 313.8266502 446.00569888 311.47198486 447.86766052 C309.65167248 449.31137619 309.65167248 449.31137619 307.26495361 451.78562927 C305.22477167 453.82581121 303.29948043 455.58197377 300.88995361 457.16062927 C300.22995361 457.16062927 299.56995361 457.16062927 298.88995361 457.16062927 C298.55995361 458.15062927 298.22995361 459.14062927 297.88995361 460.16062927 C296.3172322 461.11793796 294.73363048 462.06051455 293.10870361 462.92625427 C290.49001154 464.38313226 288.01895338 466.01474179 285.51495361 467.66062927 C273.82140523 475.16062927 273.82140523 475.16062927 268.88995361 475.16062927 C268.88995361 475.82062927 268.88995361 476.48062927 268.88995361 477.16062927 C265.81059395 478.33797887 262.72587845 479.50060818 259.63995361 480.66062927 C258.33091064 481.16143005 258.33091064 481.16143005 256.99542236 481.67234802 C256.15108643 481.98816833 255.30675049 482.30398865 254.43682861 482.62937927 C253.66177979 482.92264099 252.88673096 483.21590271 252.0881958 483.51805115 C249.88995361 484.16062927 249.88995361 484.16062927 245.88995361 484.16062927 C245.88995361 484.82062927 245.88995361 485.48062927 245.88995361 486.16062927 C242.01537063 486.97512639 238.14021611 487.7868719 234.26495361 488.59812927 C232.62333252 488.94327576 232.62333252 488.94327576 230.94854736 489.2953949 C229.8850708 489.51775818 228.82159424 489.74012146 227.72589111 489.96922302 C226.75184326 490.17345886 225.77779541 490.3776947 224.77423096 490.58811951 C219.4302096 491.64887201 214.47345615 492.27882828 209.01495361 492.22312927 C207.86253174 492.21410583 206.71010986 492.2050824 205.52276611 492.19578552 C204.65393799 492.18418396 203.78510986 492.1725824 202.88995361 492.16062927 C202.88995361 492.82062927 202.88995361 493.48062927 202.88995361 494.16062927 C190.34995361 494.16062927 177.80995361 494.16062927 164.88995361 494.16062927 C164.88995361 493.50062927 164.88995361 492.84062927 164.88995361 492.16062927 C164.2949707 492.18093201 163.69998779 492.20123474 163.0869751 492.22215271 C156.5196578 492.34718371 150.39599487 491.6366576 143.95245361 490.41062927 C142.97953369 490.22798523 142.00661377 490.04534119 141.00421143 489.85716248 C134.31529757 488.55117283 128.17050699 486.81811512 121.88995361 484.16062927 C119.50578058 483.22598243 117.1164105 482.30533063 114.72686768 481.38450623 C111.10964682 479.98904259 107.50002439 478.57447437 103.88995361 477.16062927 C103.88995361 476.50062927 103.88995361 475.84062927 103.88995361 475.16062927 C102.71432861 474.82031677 102.71432861 474.82031677 101.51495361 474.47312927 C95.56067179 472.31726861 89.19088725 469.96590692 84.88995361 465.16062927 C84.5638208 465.8128949 84.23768799 466.46516052 83.90167236 467.13719177 C82.99906636 468.94240379 82.09265649 470.74571769 81.18292236 472.54734802 C80.19781215 474.5384016 79.2784009 476.56210425 78.38995361 478.59812927 C76.54299673 481.75334729 75.1854052 482.59583588 71.88995361 484.16062927 C69.31799005 484.44438998 66.99247238 484.571579 64.42510986 484.54881287 C63.32415482 484.5566983 63.32415482 484.5566983 62.20095825 484.56474304 C59.78457097 484.5779032 57.36884713 484.56921947 54.95245361 484.55906677 C53.26763788 484.56108866 51.582823 484.56400106 49.89801025 484.56776428 C46.3708257 484.57218222 42.8438694 484.56577374 39.31671143 484.55174255 C34.80064219 484.53465087 30.28510785 484.54449491 25.76905823 484.56245995 C22.2911579 484.57331216 18.81338392 484.56984486 15.33547974 484.56207657 C13.67054175 484.56007853 12.00559221 484.5625199 10.34066772 484.56951523 C8.01173617 484.57715353 5.68366501 484.56549306 3.35479736 484.54881287 C2.66997284 484.55488556 1.98514832 484.56095825 1.27957153 484.56721497 C-3.01384707 484.51038702 -5.70016735 483.78818579 -9.11004639 481.16062927 C-11.56573494 477.47709645 -11.39078524 474.71208866 -11.36731529 470.4524641 C-11.37082137 469.65557614 -11.37432744 468.85868818 -11.37793976 468.03765211 C-11.3873062 465.34478625 -11.38231701 462.65213419 -11.37747192 459.95925903 C-11.38120555 458.01816325 -11.38580591 456.07706896 -11.39120257 454.13597709 C-11.40348363 448.78418044 -11.40316612 443.43244607 -11.40081382 438.08063853 C-11.40040694 432.31568658 -11.41143249 426.55075495 -11.42092896 420.78581238 C-11.437568 409.48440345 -11.44303981 398.18301537 -11.44415371 386.88159522 C-11.44510283 377.6983616 -11.4492063 368.51513489 -11.45555496 359.33190346 C-11.47030631 337.55219755 -11.48260383 315.77249703 -11.48155785 293.99278545 C-11.48152669 293.29590763 -11.48149553 292.59902981 -11.48146343 291.88103447 C-11.48129721 288.34880002 -11.48109913 284.81656556 -11.48089401 281.28433111 C-11.48085412 280.58279073 -11.48081423 279.88125035 -11.48077313 279.15845117 C-11.48069226 277.73976462 -11.48060866 276.32107807 -11.48052235 274.90239152 C-11.47929677 252.82869509 -11.49430963 230.75506008 -11.52166748 208.68138123 C-11.5523765 183.89347104 -11.56957533 159.10560154 -11.56774104 134.31767112 C-11.56707612 121.18861687 -11.5726129 108.0596319 -11.59409714 94.93059349 C-11.6122707 83.75274031 -11.61668782 72.5749878 -11.60307829 61.39712628 C-11.59652924 55.69111582 -11.59650115 49.98529871 -11.61378479 44.27930641 C-11.62943514 39.0589502 -11.62673448 33.83894193 -11.60921653 28.61859462 C-11.60612883 26.72693309 -11.60984505 24.8352461 -11.62093668 22.94361456 C-11.63499067 20.37742414 -11.62452496 17.81246555 -11.60782433 15.24631786 C-11.62272886 14.13777725 -11.62272886 14.13777725 -11.63793451 13.00684187 C-11.56815162 7.95502342 -10.35807782 5.01229336 -7.11004639 1.16062927 C-4.39930175 0.25704773 -2.78822171 0.02640408 0 0 Z M142.88995361 221.16062927 C142.88995361 221.82062927 142.88995361 222.48062927 142.88995361 223.16062927 C141.63182861 223.38750427 140.37370361 223.61437927 139.07745361 223.84812927 C132.09461091 225.39741292 124.88935842 227.90985774 119.88995361 233.16062927 C118.17120361 234.25828552 118.17120361 234.25828552 116.38995361 235.22312927 C114.12705578 236.45879059 112.04657118 237.72288423 109.88995361 239.16062927 C109.88995361 239.82062927 109.88995361 240.48062927 109.88995361 241.16062927 C109.35370361 241.40812927 108.81745361 241.65562927 108.26495361 241.91062927 C101.01716435 245.7252552 97.0859507 250.03488274 92.88995361 257.16062927 C92.88995361 257.82062927 92.88995361 258.48062927 92.88995361 259.16062927 C91.40495361 259.65562927 91.40495361 259.65562927 89.88995361 260.16062927 C87.85412203 263.29318303 86.42752192 266.76084481 84.88995361 270.16062927 C84.4400708 271.1325824 83.99018799 272.10453552 83.52667236 273.10594177 C76.28137935 289.47731183 76.25205928 306.24694627 81.88995361 323.16062927 C82.54995361 323.16062927 83.20995361 323.16062927 83.88995361 323.16062927 C84.06010986 323.72910583 84.23026611 324.2975824 84.40557861 324.88328552 C86.04063098 330.09284067 88.02304534 334.51426068 90.88995361 339.16062927 C91.54995361 339.16062927 92.20995361 339.16062927 92.88995361 339.16062927 C93.15807861 339.71750427 93.42620361 340.27437927 93.70245361 340.84812927 C96.22813166 345.76655495 98.4590068 348.7846698 102.88995361 352.16062927 C103.69432861 352.98562927 104.49870361 353.81062927 105.32745361 354.66062927 C107.8386496 357.2677451 107.8386496 357.2677451 111.01495361 359.22312927 C113.71235281 361.04094178 115.03583509 362.56486334 116.88995361 365.16062927 C117.54995361 365.16062927 118.20995361 365.16062927 118.88995361 365.16062927 C118.88995361 370.77062927 118.88995361 376.38062927 118.88995361 382.16062927 C118.22995361 382.16062927 117.56995361 382.16062927 116.88995361 382.16062927 C115.90156928 384.19784957 114.9246311 386.24062534 113.95245361 388.28562927 C113.40718018 389.4225824 112.86190674 390.55953552 112.30010986 391.73094177 C110.97964172 394.94249588 110.30211141 397.72772006 109.88995361 401.16062927 C113.24794015 399.90211943 116.17983603 398.45764898 119.20245361 396.53562927 C123.70393826 393.78884628 128.30590558 391.33832458 133.01495361 388.97312927 C133.99975708 388.47402039 133.99975708 388.47402039 135.00445557 387.96482849 C146.3929771 382.30397557 154.50750043 381.35817933 167.20245361 383.16062927 C185.15352715 385.62539709 203.33031256 384.66839763 220.88995361 380.16062927 C220.88995361 379.50062927 220.88995361 378.84062927 220.88995361 378.16062927 C222.60698486 378.00787537 222.60698486 378.00787537 224.35870361 377.85203552 C229.00214562 377.27160527 233.06255227 375.82508296 237.38995361 374.09812927 C238.11698486 373.81646912 238.84401611 373.53480896 239.59307861 373.24461365 C241.36186616 372.5580448 243.12638402 371.86049245 244.88995361 371.16062927 C244.88995361 370.50062927 244.88995361 369.84062927 244.88995361 369.16062927 C245.77747314 368.88799255 245.77747314 368.88799255 246.68292236 368.60984802 C253.10827806 366.57316993 253.10827806 366.57316993 258.88995361 363.16062927 C258.88995361 362.50062927 258.88995361 361.84062927 258.88995361 361.16062927 C259.42620361 360.91312927 259.96245361 360.66562927 260.51495361 360.41062927 C266.51121267 357.48932331 266.51121267 357.48932331 269.88995361 352.16062927 C271.22328695 351.49396261 272.55662028 350.82729594 273.88995361 350.16062927 C277.58236578 346.83745832 280.18670526 343.30561009 282.88995361 339.16062927 C283.3578833 338.7507074 283.82581299 338.34078552 284.30792236 337.91844177 C286.62225985 335.34695568 287.76740381 332.31768758 289.07745361 329.16062927 C289.35009033 328.53156677 289.62272705 327.90250427 289.90362549 327.25437927 C291.11491899 324.38856207 291.88995361 322.30359405 291.88995361 319.16062927 C292.54995361 319.16062927 293.20995361 319.16062927 293.88995361 319.16062927 C297.05528223 305.02969797 297.35203185 294.46230962 293.88995361 280.16062927 C293.22995361 280.16062927 292.56995361 280.16062927 291.88995361 280.16062927 C291.54964111 278.24250427 291.54964111 278.24250427 291.20245361 276.28562927 C290.00197461 270.77394099 287.58201642 266.08237769 284.88995361 261.16062927 C284.22995361 261.16062927 283.56995361 261.16062927 282.88995361 261.16062927 C282.66307861 260.45937927 282.43620361 259.75812927 282.20245361 259.03562927 C280.55154074 255.41934392 278.59907011 253.07292951 275.88995361 250.16062927 C275.22995361 250.16062927 274.56995361 250.16062927 273.88995361 250.16062927 C273.66307861 249.60375427 273.43620361 249.04687927 273.20245361 248.47312927 C271.50377383 245.48021728 269.46922674 243.4253569 266.88995361 241.16062927 C265.89995361 241.16062927 264.90995361 241.16062927 263.88995361 241.16062927 C263.65276611 240.55734802 263.41557861 239.95406677 263.17120361 239.33250427 C261.59385789 236.65871091 260.11825751 235.84564626 257.38995361 234.41062927 C256.59589111 233.98266052 255.80182861 233.55469177 254.98370361 233.11375427 C252.96999005 232.0225244 252.96999005 232.0225244 250.88995361 232.16062927 C250.55995361 231.17062927 250.22995361 230.18062927 249.88995361 229.16062927 C247.42858211 227.9534411 245.06930596 226.9345723 242.51495361 225.97312927 C241.82917236 225.70049255 241.14339111 225.42785583 240.43682861 225.1469574 C237.45401146 223.98922973 235.11552857 223.16062927 231.88995361 223.16062927 C231.88995361 222.50062927 231.88995361 221.84062927 231.88995361 221.16062927 C218.94959274 217.79374977 206.25055798 215.04508252 192.88995361 214.16062927 C191.82260986 214.08844177 190.75526611 214.01625427 189.65557861 213.94187927 C173.9518406 213.45368016 157.84927949 216.57030653 142.88995361 221.16062927 Z " fill="#F7F7F7" transform="translate(80.11004638671875,2.8393707275390625)"/>
<path d="M0 0 C1.25313492 -0.01506844 1.25313492 -0.01506844 2.53158569 -0.03044128 C3.4448764 -0.03627228 4.35816711 -0.04210327 5.2991333 -0.04811096 C6.74595993 -0.06278664 6.74595993 -0.06278664 8.22201538 -0.07775879 C11.41860575 -0.10770789 14.61515431 -0.12909661 17.81182861 -0.14796448 C18.90359657 -0.1545363 19.99536453 -0.16110813 21.12021637 -0.1678791 C26.89891769 -0.20047016 32.67760058 -0.22492201 38.45635986 -0.24440002 C43.23853363 -0.26221664 48.02011815 -0.2970438 52.80206299 -0.34693909 C58.57626724 -0.40711785 64.34992487 -0.43787269 70.1244278 -0.44757271 C72.32366545 -0.45613208 74.52288832 -0.4749619 76.72194672 -0.50431633 C79.80301052 -0.54323069 82.88194455 -0.54426518 85.9631958 -0.53639221 C86.86838959 -0.55639282 87.77358337 -0.57639343 88.70620728 -0.59700012 C94.461189 -0.53111645 97.44444325 0.67219907 101.61003494 4.67732143 C103.99846646 7.44529355 104.02233245 9.42890847 104.048172 12.99476624 C104.05796082 14.0156282 104.06774963 15.03649017 104.07783508 16.08828735 C104.08359055 17.21253616 104.08934601 18.33678497 104.09527588 19.49510193 C104.10517548 20.67557602 104.11507507 21.85605011 104.12527466 23.07229614 C104.15149518 26.31379709 104.17334372 29.55529271 104.19327664 32.79683733 C104.21512209 36.18280742 104.24251782 39.56873241 104.26933289 42.95466614 C104.3192793 49.36840655 104.36421088 55.78217197 104.40735525 62.19596136 C104.45671099 69.49698681 104.51163528 76.79796701 104.56703484 84.09894872 C104.68088479 99.11946674 104.78771726 114.14002737 104.88995361 129.16062927 C105.98307861 128.66562927 107.07620361 128.17062927 108.20245361 127.66062927 C111.88995361 126.16062927 111.88995361 126.16062927 114.88995361 126.16062927 C114.88995361 125.50062927 114.88995361 124.84062927 114.88995361 124.16062927 C117.9486387 123.14869298 121.01244632 122.15323557 124.07745361 121.16062927 C124.94177002 120.8744574 125.80608643 120.58828552 126.69659424 120.29344177 C127.53770752 120.02273865 128.3788208 119.75203552 129.24542236 119.47312927 C130.01523438 119.22176208 130.78504639 118.9703949 131.57818604 118.71141052 C134.08791948 118.11346368 136.31918357 118.06519465 138.88995361 118.16062927 C138.88995361 117.50062927 138.88995361 116.84062927 138.88995361 116.16062927 C150.89583833 114.06520044 162.70116162 112.48530298 174.88995361 112.16062927 C175.64292725 112.13871521 176.39590088 112.11680115 177.17169189 112.09422302 C187.47515892 111.83701145 197.67763344 112.23862904 207.95245361 113.03562927 C208.97468018 113.11402039 209.99690674 113.1924115 211.05010986 113.2731781 C217.75337927 113.84214864 224.29447894 114.8394269 230.88995361 116.16062927 C230.88995361 116.82062927 230.88995361 117.48062927 230.88995361 118.16062927 C232.08620361 118.24312927 233.28245361 118.32562927 234.51495361 118.41062927 C242.19005929 119.24169167 249.5903935 121.72744257 256.88995361 124.16062927 C256.88995361 124.82062927 256.88995361 125.48062927 256.88995361 126.16062927 C258.18159424 126.33078552 258.18159424 126.33078552 259.49932861 126.50437927 C262.98821913 127.17964841 265.88310293 128.25314606 269.13995361 129.66062927 C270.17635986 130.10406677 271.21276611 130.54750427 272.28057861 131.00437927 C273.83140762 131.69157296 275.37277049 132.40203771 276.88995361 133.16062927 C276.88995361 133.82062927 276.88995361 134.48062927 276.88995361 135.16062927 C277.47003174 135.33078552 278.05010986 135.50094177 278.64776611 135.67625427 C283.67036411 137.23441999 287.75684332 138.87533647 291.88995361 142.16062927 C291.88995361 142.82062927 291.88995361 143.48062927 291.88995361 144.16062927 C292.54995361 144.38750427 293.20995361 144.61437927 293.88995361 144.84812927 C300.17194218 147.59649927 305.22231262 151.1145309 309.88995361 156.16062927 C312.80026946 159.1496023 315.78483952 161.95055944 318.95245361 164.66062927 C321.98183181 167.28078565 324.46663216 169.95838307 326.88995361 173.16062927 C327.52932861 173.77937927 328.16870361 174.39812927 328.82745361 175.03562927 C331.07851605 177.35490572 332.83184261 179.80950848 334.64385986 182.47703552 C335.83838188 184.1887307 335.83838188 184.1887307 337.34307861 185.55906677 C339.30791995 187.59337219 340.62989377 189.79623265 342.07745361 192.22312927 C342.6072583 193.10098083 343.13706299 193.9788324 343.68292236 194.88328552 C344.88995361 197.16062927 344.88995361 197.16062927 344.88995361 199.16062927 C345.54995361 199.16062927 346.20995361 199.16062927 346.88995361 199.16062927 C347.89727761 201.09433158 348.8955865 203.03273233 349.88995361 204.97312927 C350.72526611 206.59154724 350.72526611 206.59154724 351.57745361 208.24266052 C352.88995361 211.16062927 352.88995361 211.16062927 352.88995361 214.16062927 C353.54995361 214.16062927 354.20995361 214.16062927 354.88995361 214.16062927 C355.88006804 216.34372562 356.85700929 218.53130194 357.82745361 220.72312927 C358.10524658 221.3322113 358.38303955 221.94129333 358.66925049 222.5688324 C360.52587145 226.79655964 361.4226044 230.56404269 361.88995361 235.16062927 C362.54995361 235.16062927 363.20995361 235.16062927 363.88995361 235.16062927 C364.87450367 239.18016385 365.851626 243.20146902 366.82745361 247.22312927 C367.10524658 248.35685974 367.38303955 249.49059021 367.66925049 250.65867615 C371.06631488 264.69714706 371.06631488 264.69714706 370.95245361 272.09812927 C370.94343018 272.87027771 370.93440674 273.64242615 370.92510986 274.43797302 C370.90770752 275.29068787 370.90770752 275.29068787 370.88995361 276.16062927 C371.54995361 276.16062927 372.20995361 276.16062927 372.88995361 276.16062927 C373.73420781 286.05898088 374.04434822 295.85025064 374.01495361 305.78562927 C374.0188208 307.10047302 374.02268799 308.41531677 374.02667236 309.77000427 C374.01887084 317.61833757 373.69287452 325.35272647 372.88995361 333.16062927 C372.22995361 333.16062927 371.56995361 333.16062927 370.88995361 333.16062927 C370.87577393 333.92762146 370.86159424 334.69461365 370.84698486 335.48484802 C370.12874331 352.19852303 365.54996152 367.90647417 358.88995361 383.16062927 C358.09108756 385.13690097 357.29849844 387.11573317 356.51495361 389.09812927 C355.97328695 390.45229594 355.43162028 391.80646261 354.88995361 393.16062927 C354.22995361 393.16062927 353.56995361 393.16062927 352.88995361 393.16062927 C352.64245361 394.15062927 352.39495361 395.14062927 352.13995361 396.16062927 C350.2926301 402.57422429 347.68366603 407.51218087 342.88995361 412.16062927 C341.54386233 414.25906764 340.2777948 416.38821854 339.03839111 418.55125427 C338.46991455 419.3478949 338.46991455 419.3478949 337.88995361 420.16062927 C337.22995361 420.16062927 336.56995361 420.16062927 335.88995361 420.16062927 C335.54964111 421.21250427 335.54964111 421.21250427 335.20245361 422.28562927 C333.55154074 425.90191462 331.59907011 428.24832904 328.88995361 431.16062927 C328.22995361 431.16062927 327.56995361 431.16062927 326.88995361 431.16062927 C326.54964111 431.99594177 326.54964111 431.99594177 326.20245361 432.84812927 C324.51445325 435.82222515 322.42318845 437.88071792 319.88995361 440.16062927 C319.22995361 440.16062927 318.56995361 440.16062927 317.88995361 440.16062927 C317.58057861 440.99594177 317.58057861 440.99594177 317.26495361 441.84812927 C315.71984363 444.44672333 313.8266502 446.00569888 311.47198486 447.86766052 C309.65167248 449.31137619 309.65167248 449.31137619 307.26495361 451.78562927 C305.22477167 453.82581121 303.29948043 455.58197377 300.88995361 457.16062927 C300.22995361 457.16062927 299.56995361 457.16062927 298.88995361 457.16062927 C298.55995361 458.15062927 298.22995361 459.14062927 297.88995361 460.16062927 C296.3172322 461.11793796 294.73363048 462.06051455 293.10870361 462.92625427 C290.49001154 464.38313226 288.01895338 466.01474179 285.51495361 467.66062927 C273.82140523 475.16062927 273.82140523 475.16062927 268.88995361 475.16062927 C268.88995361 475.82062927 268.88995361 476.48062927 268.88995361 477.16062927 C265.81059395 478.33797887 262.72587845 479.50060818 259.63995361 480.66062927 C258.33091064 481.16143005 258.33091064 481.16143005 256.99542236 481.67234802 C256.15108643 481.98816833 255.30675049 482.30398865 254.43682861 482.62937927 C253.66177979 482.92264099 252.88673096 483.21590271 252.0881958 483.51805115 C249.88995361 484.16062927 249.88995361 484.16062927 245.88995361 484.16062927 C245.88995361 484.82062927 245.88995361 485.48062927 245.88995361 486.16062927 C242.01537063 486.97512639 238.14021611 487.7868719 234.26495361 488.59812927 C232.62333252 488.94327576 232.62333252 488.94327576 230.94854736 489.2953949 C229.8850708 489.51775818 228.82159424 489.74012146 227.72589111 489.96922302 C226.75184326 490.17345886 225.77779541 490.3776947 224.77423096 490.58811951 C219.4302096 491.64887201 214.47345615 492.27882828 209.01495361 492.22312927 C207.86253174 492.21410583 206.71010986 492.2050824 205.52276611 492.19578552 C204.65393799 492.18418396 203.78510986 492.1725824 202.88995361 492.16062927 C202.88995361 492.82062927 202.88995361 493.48062927 202.88995361 494.16062927 C190.34995361 494.16062927 177.80995361 494.16062927 164.88995361 494.16062927 C164.88995361 493.50062927 164.88995361 492.84062927 164.88995361 492.16062927 C164.2949707 492.18093201 163.69998779 492.20123474 163.0869751 492.22215271 C156.5196578 492.34718371 150.39599487 491.6366576 143.95245361 490.41062927 C142.97953369 490.22798523 142.00661377 490.04534119 141.00421143 489.85716248 C134.31529757 488.55117283 128.17050699 486.81811512 121.88995361 484.16062927 C119.50578058 483.22598243 117.1164105 482.30533063 114.72686768 481.38450623 C111.10964682 479.98904259 107.50002439 478.57447437 103.88995361 477.16062927 C103.88995361 476.50062927 103.88995361 475.84062927 103.88995361 475.16062927 C102.71432861 474.82031677 102.71432861 474.82031677 101.51495361 474.47312927 C95.56067179 472.31726861 89.19088725 469.96590692 84.88995361 465.16062927 C84.5638208 465.8128949 84.23768799 466.46516052 83.90167236 467.13719177 C82.99906636 468.94240379 82.09265649 470.74571769 81.18292236 472.54734802 C80.19781215 474.5384016 79.2784009 476.56210425 78.38995361 478.59812927 C76.54299673 481.75334729 75.1854052 482.59583588 71.88995361 484.16062927 C69.31799005 484.44438998 66.99247238 484.571579 64.42510986 484.54881287 C63.32415482 484.5566983 63.32415482 484.5566983 62.20095825 484.56474304 C59.78457097 484.5779032 57.36884713 484.56921947 54.95245361 484.55906677 C53.26763788 484.56108866 51.582823 484.56400106 49.89801025 484.56776428 C46.3708257 484.57218222 42.8438694 484.56577374 39.31671143 484.55174255 C34.80064219 484.53465087 30.28510785 484.54449491 25.76905823 484.56245995 C22.2911579 484.57331216 18.81338392 484.56984486 15.33547974 484.56207657 C13.67054175 484.56007853 12.00559221 484.5625199 10.34066772 484.56951523 C8.01173617 484.57715353 5.68366501 484.56549306 3.35479736 484.54881287 C2.66997284 484.55488556 1.98514832 484.56095825 1.27957153 484.56721497 C-3.01384707 484.51038702 -5.70016735 483.78818579 -9.11004639 481.16062927 C-11.56573494 477.47709645 -11.39078524 474.71208866 -11.36731529 470.4524641 C-11.37082137 469.65557614 -11.37432744 468.85868818 -11.37793976 468.03765211 C-11.3873062 465.34478625 -11.38231701 462.65213419 -11.37747192 459.95925903 C-11.38120555 458.01816325 -11.38580591 456.07706896 -11.39120257 454.13597709 C-11.40348363 448.78418044 -11.40316612 443.43244607 -11.40081382 438.08063853 C-11.40040694 432.31568658 -11.41143249 426.55075495 -11.42092896 420.78581238 C-11.437568 409.48440345 -11.44303981 398.18301537 -11.44415371 386.88159522 C-11.44510283 377.6983616 -11.4492063 368.51513489 -11.45555496 359.33190346 C-11.47030631 337.55219755 -11.48260383 315.77249703 -11.48155785 293.99278545 C-11.48152669 293.29590763 -11.48149553 292.59902981 -11.48146343 291.88103447 C-11.48129721 288.34880002 -11.48109913 284.81656556 -11.48089401 281.28433111 C-11.48085412 280.58279073 -11.48081423 279.88125035 -11.48077313 279.15845117 C-11.48069226 277.73976462 -11.48060866 276.32107807 -11.48052235 274.90239152 C-11.47929677 252.82869509 -11.49430963 230.75506008 -11.52166748 208.68138123 C-11.5523765 183.89347104 -11.56957533 159.10560154 -11.56774104 134.31767112 C-11.56707612 121.18861687 -11.5726129 108.0596319 -11.59409714 94.93059349 C-11.6122707 83.75274031 -11.61668782 72.5749878 -11.60307829 61.39712628 C-11.59652924 55.69111582 -11.59650115 49.98529871 -11.61378479 44.27930641 C-11.62943514 39.0589502 -11.62673448 33.83894193 -11.60921653 28.61859462 C-11.60612883 26.72693309 -11.60984505 24.8352461 -11.62093668 22.94361456 C-11.63499067 20.37742414 -11.62452496 17.81246555 -11.60782433 15.24631786 C-11.62272886 14.13777725 -11.62272886 14.13777725 -11.63793451 13.00684187 C-11.56815162 7.95502342 -10.35807782 5.01229336 -7.11004639 1.16062927 C-4.39930175 0.25704773 -2.78822171 0.02640408 0 0 Z M0.88995361 13.16062927 C0.88995361 164.30062927 0.88995361 315.44062927 0.88995361 471.16062927 C22.66995361 471.16062927 44.44995361 471.16062927 66.88995361 471.16062927 C72.78413634 459.90221271 72.78413634 459.90221271 76.32745361 448.28562927 C76.48665283 447.58566833 76.64585205 446.8857074 76.80987549 446.16453552 C77.1860745 444.50013989 77.54071718 442.83089046 77.88995361 441.16062927 C78.54995361 441.16062927 79.20995361 441.16062927 79.88995361 441.16062927 C80.89699721 438.05870287 81.89436167 434.9537483 82.88995361 431.84812927 C83.17612549 430.96705505 83.46229736 430.08598083 83.75714111 429.1782074 C84.02784424 428.3306488 84.29854736 427.48309021 84.57745361 426.60984802 C84.8288208 425.82956238 85.08018799 425.04927673 85.33917236 424.24534607 C86.01767114 422.03659078 86.01767114 422.03659078 85.88995361 419.16062927 C86.54995361 419.16062927 87.20995361 419.16062927 87.88995361 419.16062927 C89.06187797 416.03757554 90.22659237 412.91188188 91.38995361 409.78562927 C91.7238208 408.89617615 92.05768799 408.00672302 92.40167236 407.09031677 C92.71749268 406.23953552 93.03331299 405.38875427 93.35870361 404.51219177 C93.79859619 403.33390808 93.79859619 403.33390808 94.24737549 402.13182068 C94.9932645 400.18925693 94.9932645 400.18925693 94.88995361 398.16062927 C95.54995361 398.16062927 96.20995361 398.16062927 96.88995361 398.16062927 C97.34885986 397.01465271 97.80776611 395.86867615 98.28057861 394.68797302 C98.90010949 393.15791949 99.51991588 391.62797748 100.13995361 390.09812927 C100.44030518 389.3459613 100.74065674 388.59379333 101.05010986 387.8188324 C102.54956315 384.13400571 104.10943513 380.68720017 106.18682861 377.28953552 C106.74885986 376.25699646 107.31089111 375.2244574 107.88995361 374.16062927 C106.74559404 370.72755056 105.7524655 370.35438676 102.82745361 368.51219177 C93.54082291 362.03401794 85.48463424 353.48224676 79.93292236 343.62937927 C79.41665283 342.90234802 79.41665283 342.90234802 78.88995361 342.16062927 C78.22995361 342.16062927 77.56995361 342.16062927 76.88995361 342.16062927 C76.59991455 341.27310974 76.59991455 341.27310974 76.30401611 340.36766052 C74.94580642 336.24596477 73.56944777 332.16557687 71.88995361 328.16062927 C71.22995361 328.16062927 70.56995361 328.16062927 69.88995361 328.16062927 C69.57570576 326.47345389 69.26365207 324.78586978 68.95245361 323.09812927 C68.77843018 322.15840271 68.60440674 321.21867615 68.42510986 320.25047302 C68.16020752 318.72100037 68.16020752 318.72100037 67.88995361 317.16062927 C67.70690674 316.11519958 67.52385986 315.0697699 67.33526611 313.99266052 C66.74961164 308.95294968 66.7057583 303.98001554 66.70245361 298.91062927 C66.69020752 297.93738708 66.67796143 296.9641449 66.66534424 295.96141052 C66.64454032 285.51784566 68.22552868 276.50405546 72.88995361 267.16062927 C73.38495361 266.07652771 73.87995361 264.99242615 74.38995361 263.87547302 C78.2577199 255.6475165 82.70466042 248.91107616 88.88995361 242.16062927 C89.60022705 241.38074646 90.31050049 240.60086365 91.04229736 239.79734802 C98.7843353 231.6913083 107.60711065 224.70880981 117.88995361 220.16062927 C117.88995361 219.50062927 117.88995361 218.84062927 117.88995361 218.16062927 C119.08620361 217.76875427 120.28245361 217.37687927 121.51495361 216.97312927 C125.71426406 215.56892245 129.89948217 214.12712826 134.07745361 212.66062927 C135.80028564 212.05734802 135.80028564 212.05734802 137.55792236 211.44187927 C140.87541376 210.24762858 140.87541376 210.24762858 143.76885986 208.60594177 C147.68639002 206.79181642 151.3945883 206.16669709 155.63995361 205.53562927 C156.38760986 205.4144574 157.13526611 205.29328552 157.90557861 205.16844177 C181.33566441 201.47740086 204.56822809 201.75830961 227.56182861 207.60935974 C230.6590438 208.34273976 233.73124029 208.78314567 236.88995361 209.16062927 C236.88995361 209.82062927 236.88995361 210.48062927 236.88995361 211.16062927 C237.64276611 211.41715271 238.39557861 211.67367615 239.17120361 211.93797302 C253.34879925 217.04810155 265.57931874 224.16647813 276.88995361 234.16062927 C277.59378174 234.72137146 278.29760986 235.28211365 279.02276611 235.85984802 C285.328648 240.9663759 291.24267829 247.86607862 294.88995361 255.16062927 C295.54995361 255.16062927 296.20995361 255.16062927 296.88995361 255.16062927 C297.13616455 255.9572699 297.38237549 256.75391052 297.63604736 257.57469177 C298.60053171 260.33293672 299.63240966 262.95012131 300.80010986 265.62156677 C301.32508057 266.82426208 301.32508057 266.82426208 301.86065674 268.05125427 C302.58628108 269.70240662 303.31802418 271.35088399 304.05596924 272.99656677 C307.7545591 281.5286188 308.08412285 289.25707113 308.07745361 298.47312927 C308.07809814 299.39795105 308.07874268 300.32277283 308.07940674 301.27561951 C308.0348595 307.03081873 307.65687266 312.47970079 306.32745361 318.10203552 C305.75136631 320.46197038 305.75136631 320.46197038 305.88995361 324.16062927 C305.22995361 324.16062927 304.56995361 324.16062927 303.88995361 324.16062927 C303.54964111 325.11582458 303.20932861 326.0710199 302.85870361 327.05516052 C299.62786851 335.79942424 295.81461835 342.8737241 289.88995361 350.16062927 C289.14229736 351.1325824 288.39464111 352.10453552 287.62432861 353.10594177 C283.44263525 358.43973433 279.59171192 362.51150396 273.88995361 366.16062927 C273.25573486 366.82771912 273.25573486 366.82771912 272.60870361 367.50828552 C270.09274847 369.9270333 267.19344387 371.72552893 264.26495361 373.59812927 C263.64410889 373.99701355 263.02326416 374.39589783 262.38360596 374.80686951 C257.71588838 377.75397857 253.03035473 380.12219435 247.88995361 382.16062927 C247.88995361 382.82062927 247.88995361 383.48062927 247.88995361 384.16062927 C247.17822998 384.29348328 246.46650635 384.42633728 245.73321533 384.56321716 C242.90300847 385.15788625 240.17152392 385.9023009 237.39776611 386.71922302 C235.84509033 387.17458435 235.84509033 387.17458435 234.26104736 387.6391449 C233.18983643 387.95560974 232.11862549 388.27207458 231.01495361 388.59812927 C227.87775857 389.52027448 224.74050136 390.44212197 221.60186768 391.35935974 C219.4598338 391.99225092 217.3256607 392.65174449 215.19464111 393.32078552 C205.75725317 395.71917607 196.05397974 395.31330343 186.38995361 395.28562927 C184.85479731 395.28652617 183.31964106 395.28750303 181.78448486 395.28855896 C174.12151598 395.27875036 166.52578224 395.10223767 158.88995361 394.41062927 C152.25090974 393.91528092 147.68337918 394.9457804 141.88995361 398.16062927 C140.68260987 398.74600805 139.47441597 399.32964043 138.26495361 399.91062927 C137.48120361 400.32312927 136.69745361 400.73562927 135.88995361 401.16062927 C135.88995361 401.82062927 135.88995361 402.48062927 135.88995361 403.16062927 C135.05464111 403.41586365 135.05464111 403.41586365 134.20245361 403.67625427 C128.79404752 405.39378864 123.90932465 407.51405182 118.88995361 410.16062927 C118.88995361 410.82062927 118.88995361 411.48062927 118.88995361 412.16062927 C118.16807861 412.4313324 117.44620361 412.70203552 116.70245361 412.98094177 C106.72763438 417.16482429 99.01435153 424.31471848 91.36309814 431.73875427 C90.03346853 433.02210908 88.67984246 434.28048861 87.32354736 435.53562927 C86.60296143 436.21625427 85.88237549 436.89687927 85.13995361 437.59812927 C84.52635986 438.17434021 83.91276611 438.75055115 83.28057861 439.34422302 C81.57723574 441.56909503 81.24841891 443.41082311 80.88995361 446.16062927 C82.13682953 447.12302379 83.38760331 448.08036937 84.63995361 449.03562927 C85.33604736 449.56930115 86.03214111 450.10297302 86.74932861 450.65281677 C88.81200122 452.19187629 88.81200122 452.19187629 90.96807861 453.16844177 C93.05688392 454.24680874 94.24634514 455.49610975 95.88995361 457.16062927 C104.92122413 463.22566599 114.13310037 468.25215531 124.88995361 470.16062927 C124.88995361 470.82062927 124.88995361 471.48062927 124.88995361 472.16062927 C142.09034434 477.51922868 142.09034434 477.51922868 159.88995361 479.16062927 C159.88995361 479.82062927 159.88995361 480.48062927 159.88995361 481.16062927 C167.85954543 482.16569989 175.73918129 482.31154673 183.76495361 482.28562927 C184.9547583 482.28949646 186.14456299 482.29336365 187.37042236 482.29734802 C194.92620045 482.28909034 202.37225335 481.91774568 209.88995361 481.16062927 C209.88995361 480.50062927 209.88995361 479.84062927 209.88995361 479.16062927 C210.61956299 479.13484802 211.34917236 479.10906677 212.10089111 479.08250427 C221.98748371 478.5454548 231.28832332 476.47752098 240.88995361 474.16062927 C240.88995361 473.50062927 240.88995361 472.84062927 240.88995361 472.16062927 C241.96309814 471.92279724 241.96309814 471.92279724 243.05792236 471.68016052 C250.96661897 469.82831824 258.37432525 467.22749052 265.88995361 464.16062927 C265.88995361 463.50062927 265.88995361 462.84062927 265.88995361 462.16062927 C266.76135986 461.89637146 267.63276611 461.63211365 268.53057861 461.35984802 C285.32049625 455.36623789 300.21136137 441.97423048 312.70245361 429.59812927 C313.32466797 428.98518005 313.94688232 428.37223083 314.58795166 427.7407074 C321.35729392 420.92509299 326.64696415 413.19847796 331.95245361 405.22312927 C332.45583252 404.47611755 332.95921143 403.72910583 333.47784424 402.9594574 C341.08480675 391.55393404 347.39659606 379.76076137 349.88995361 366.16062927 C350.54995361 366.16062927 351.20995361 366.16062927 351.88995361 366.16062927 C356.23081194 350.90193709 356.23081194 350.90193709 357.88995361 335.16062927 C358.54995361 335.16062927 359.20995361 335.16062927 359.88995361 335.16062927 C362.61281199 313.88829821 362.09028774 293.47051413 359.88995361 272.16062927 C359.22995361 272.16062927 358.56995361 272.16062927 357.88995361 272.16062927 C357.94667236 271.26086365 358.00339111 270.36109802 358.06182861 269.43406677 C358.05609366 263.73065885 356.49061482 258.2921711 355.13995361 252.78562927 C354.88729736 251.70023865 354.63464111 250.61484802 354.37432861 249.49656677 C352.80657733 243.00607647 350.76679953 237.17281149 347.88995361 231.16062927 C347.09153532 229.18417663 346.29894506 227.20534879 345.51495361 225.22312927 C343.50621135 220.36764185 341.14566201 215.97331619 338.35479736 211.52781677 C336.95146039 209.26002422 335.69665622 206.95599519 334.45245361 204.59812927 C331.75309881 199.70501311 328.42096191 195.47709232 324.88995361 191.16062927 C324.17452393 190.27117615 323.45909424 189.38172302 322.72198486 188.46531677 C320.46659688 185.67810753 318.18606019 182.91436542 315.88995361 180.16062927 C315.21835205 179.35109802 314.54675049 178.54156677 313.85479736 177.70750427 C310.04761142 173.25695689 306.12916027 169.51822735 301.42120361 166.03562927 C299.01217573 164.25116417 296.6764895 162.3901372 294.33624268 160.51707458 C287.25225611 154.90662497 279.88031398 150.37999007 271.88995361 146.16062927 C271.26846436 145.82869568 270.6469751 145.49676208 270.00665283 145.1547699 C261.3692638 140.48718484 261.3692638 140.48718484 251.88995361 138.16062927 C251.88995361 137.50062927 251.88995361 136.84062927 251.88995361 136.16062927 C249.12053755 135.32231955 246.34960292 134.48980894 243.57745361 133.66062927 C242.79177002 133.42215271 242.00608643 133.18367615 241.19659424 132.93797302 C240.06060791 132.59959412 240.06060791 132.59959412 238.90167236 132.25437927 C237.85692749 131.94017029 237.85692749 131.94017029 236.79107666 131.61961365 C234.72987528 131.04328663 234.72987528 131.04328663 231.88995361 131.16062927 C231.88995361 130.50062927 231.88995361 129.84062927 231.88995361 129.16062927 C216.11361115 125.53255296 200.63273766 124.74082392 184.51495361 124.72312927 C183.58799683 124.71740906 182.66104004 124.71168884 181.70599365 124.70579529 C168.81913529 124.65002527 156.55385188 125.77078506 143.88995361 128.16062927 C143.88995361 128.82062927 143.88995361 129.48062927 143.88995361 130.16062927 C142.17292236 130.32885193 142.17292236 130.32885193 140.42120361 130.50047302 C135.88568158 131.06741328 131.71884357 132.29219065 127.38995361 133.72312927 C126.66292236 133.95709412 125.93589111 134.19105896 125.18682861 134.43211365 C123.41915101 135.00195709 121.65424392 135.58038331 119.88995361 136.16062927 C119.88995361 136.82062927 119.88995361 137.48062927 119.88995361 138.16062927 C119.3266333 138.28953552 118.76331299 138.41844177 118.18292236 138.55125427 C108.98714849 140.99510559 100.46673184 145.4780456 92.88995361 151.16062927 C92.39495361 82.85062927 92.39495361 82.85062927 91.88995361 13.16062927 C61.85995361 13.16062927 31.82995361 13.16062927 0.88995361 13.16062927 Z M142.88995361 221.16062927 C142.88995361 221.82062927 142.88995361 222.48062927 142.88995361 223.16062927 C141.63182861 223.38750427 140.37370361 223.61437927 139.07745361 223.84812927 C132.09461091 225.39741292 124.88935842 227.90985774 119.88995361 233.16062927 C118.17120361 234.25828552 118.17120361 234.25828552 116.38995361 235.22312927 C114.12705578 236.45879059 112.04657118 237.72288423 109.88995361 239.16062927 C109.88995361 239.82062927 109.88995361 240.48062927 109.88995361 241.16062927 C109.35370361 241.40812927 108.81745361 241.65562927 108.26495361 241.91062927 C101.01716435 245.7252552 97.0859507 250.03488274 92.88995361 257.16062927 C92.88995361 257.82062927 92.88995361 258.48062927 92.88995361 259.16062927 C91.40495361 259.65562927 91.40495361 259.65562927 89.88995361 260.16062927 C87.85412203 263.29318303 86.42752192 266.76084481 84.88995361 270.16062927 C84.4400708 271.1325824 83.99018799 272.10453552 83.52667236 273.10594177 C76.28137935 289.47731183 76.25205928 306.24694627 81.88995361 323.16062927 C82.54995361 323.16062927 83.20995361 323.16062927 83.88995361 323.16062927 C84.06010986 323.72910583 84.23026611 324.2975824 84.40557861 324.88328552 C86.04063098 330.09284067 88.02304534 334.51426068 90.88995361 339.16062927 C91.54995361 339.16062927 92.20995361 339.16062927 92.88995361 339.16062927 C93.15807861 339.71750427 93.42620361 340.27437927 93.70245361 340.84812927 C96.22813166 345.76655495 98.4590068 348.7846698 102.88995361 352.16062927 C103.69432861 352.98562927 104.49870361 353.81062927 105.32745361 354.66062927 C107.8386496 357.2677451 107.8386496 357.2677451 111.01495361 359.22312927 C113.71235281 361.04094178 115.03583509 362.56486334 116.88995361 365.16062927 C117.54995361 365.16062927 118.20995361 365.16062927 118.88995361 365.16062927 C118.88995361 370.77062927 118.88995361 376.38062927 118.88995361 382.16062927 C118.22995361 382.16062927 117.56995361 382.16062927 116.88995361 382.16062927 C115.90156928 384.19784957 114.9246311 386.24062534 113.95245361 388.28562927 C113.40718018 389.4225824 112.86190674 390.55953552 112.30010986 391.73094177 C110.97964172 394.94249588 110.30211141 397.72772006 109.88995361 401.16062927 C113.24794015 399.90211943 116.17983603 398.45764898 119.20245361 396.53562927 C123.70393826 393.78884628 128.30590558 391.33832458 133.01495361 388.97312927 C133.99975708 388.47402039 133.99975708 388.47402039 135.00445557 387.96482849 C146.3929771 382.30397557 154.50750043 381.35817933 167.20245361 383.16062927 C185.15352715 385.62539709 203.33031256 384.66839763 220.88995361 380.16062927 C220.88995361 379.50062927 220.88995361 378.84062927 220.88995361 378.16062927 C222.60698486 378.00787537 222.60698486 378.00787537 224.35870361 377.85203552 C229.00214562 377.27160527 233.06255227 375.82508296 237.38995361 374.09812927 C238.11698486 373.81646912 238.84401611 373.53480896 239.59307861 373.24461365 C241.36186616 372.5580448 243.12638402 371.86049245 244.88995361 371.16062927 C244.88995361 370.50062927 244.88995361 369.84062927 244.88995361 369.16062927 C245.77747314 368.88799255 245.77747314 368.88799255 246.68292236 368.60984802 C253.10827806 366.57316993 253.10827806 366.57316993 258.88995361 363.16062927 C258.88995361 362.50062927 258.88995361 361.84062927 258.88995361 361.16062927 C259.42620361 360.91312927 259.96245361 360.66562927 260.51495361 360.41062927 C266.51121267 357.48932331 266.51121267 357.48932331 269.88995361 352.16062927 C271.22328695 351.49396261 272.55662028 350.82729594 273.88995361 350.16062927 C277.58236578 346.83745832 280.18670526 343.30561009 282.88995361 339.16062927 C283.3578833 338.7507074 283.82581299 338.34078552 284.30792236 337.91844177 C286.62225985 335.34695568 287.76740381 332.31768758 289.07745361 329.16062927 C289.35009033 328.53156677 289.62272705 327.90250427 289.90362549 327.25437927 C291.11491899 324.38856207 291.88995361 322.30359405 291.88995361 319.16062927 C292.54995361 319.16062927 293.20995361 319.16062927 293.88995361 319.16062927 C297.05528223 305.02969797 297.35203185 294.46230962 293.88995361 280.16062927 C293.22995361 280.16062927 292.56995361 280.16062927 291.88995361 280.16062927 C291.54964111 278.24250427 291.54964111 278.24250427 291.20245361 276.28562927 C290.00197461 270.77394099 287.58201642 266.08237769 284.88995361 261.16062927 C284.22995361 261.16062927 283.56995361 261.16062927 282.88995361 261.16062927 C282.66307861 260.45937927 282.43620361 259.75812927 282.20245361 259.03562927 C280.55154074 255.41934392 278.59907011 253.07292951 275.88995361 250.16062927 C275.22995361 250.16062927 274.56995361 250.16062927 273.88995361 250.16062927 C273.66307861 249.60375427 273.43620361 249.04687927 273.20245361 248.47312927 C271.50377383 245.48021728 269.46922674 243.4253569 266.88995361 241.16062927 C265.89995361 241.16062927 264.90995361 241.16062927 263.88995361 241.16062927 C263.65276611 240.55734802 263.41557861 239.95406677 263.17120361 239.33250427 C261.59385789 236.65871091 260.11825751 235.84564626 257.38995361 234.41062927 C256.59589111 233.98266052 255.80182861 233.55469177 254.98370361 233.11375427 C252.96999005 232.0225244 252.96999005 232.0225244 250.88995361 232.16062927 C250.55995361 231.17062927 250.22995361 230.18062927 249.88995361 229.16062927 C247.42858211 227.9534411 245.06930596 226.9345723 242.51495361 225.97312927 C241.82917236 225.70049255 241.14339111 225.42785583 240.43682861 225.1469574 C237.45401146 223.98922973 235.11552857 223.16062927 231.88995361 223.16062927 C231.88995361 222.50062927 231.88995361 221.84062927 231.88995361 221.16062927 C218.94959274 217.79374977 206.25055798 215.04508252 192.88995361 214.16062927 C191.82260986 214.08844177 190.75526611 214.01625427 189.65557861 213.94187927 C173.9518406 213.45368016 157.84927949 216.57030653 142.88995361 221.16062927 Z " fill="#161F2F" transform="translate(80.11004638671875,2.8393707275390625)"/>
<path d="M0 0 C0.75369873 0.00161133 1.50739746 0.00322266 2.28393555 0.00488281 C9.40968428 0.1625287 13.70794522 1.74965069 19.125 6.625 C19.62 7.2025 20.115 7.78 20.625 8.375 C21.346875 7.611875 22.06875 6.84875 22.8125 6.0625 C28.02730239 1.0794666 31.83847466 -0.11268134 39 0 C39.72960937 -0.01160156 40.45921875 -0.02320313 41.2109375 -0.03515625 C47.08827009 -0.00367054 51.87705 1.15891129 56.5625 4.9375 C57.625 6.375 57.625 6.375 57.625 8.375 C58.615 8.375 59.605 8.375 60.625 8.375 C61.80527019 6.90763705 62.98297799 5.43393724 64.05078125 3.8828125 C68.83748562 -0.70197134 76.11343339 -0.01204815 82.28393555 0.00708008 C88.05859261 0.13921896 91.8549325 0.9143628 96.625 4.375 C100.625 8.575 100.625 8.575 100.625 11.375 C101.285 11.375 101.945 11.375 102.625 11.375 C105.67694209 19.42873607 106.19846911 29.3772358 102.625 37.375 C100.3125 39.5 100.3125 39.5 97.625 41.375 C96.820625 42.24125 96.01625 43.1075 95.1875 44 C89.93564747 48.86757064 83.79647079 48.80474353 76.95703125 48.6953125 C70.7941929 48.10287083 65.70138692 46.15476021 61 42.125 C60.319375 41.25875 60.319375 41.25875 59.625 40.375 C58.97144531 40.98988281 58.97144531 40.98988281 58.3046875 41.6171875 C57.70914063 42.15601563 57.11359375 42.69484375 56.5 43.25 C55.91992188 43.78367187 55.33984375 44.31734375 54.7421875 44.8671875 C48.4406031 49.35503174 41.02373857 48.96077102 33.625 48.375 C30.50014582 47.71940272 28.49646846 46.89200221 25.625 45.375 C24.4375 43.25 24.4375 43.25 23.625 41.375 C21.32941532 40.11558283 21.32941532 40.11558283 18.625 40.375 C16.91391311 41.99602968 15.25246694 43.67003463 13.625 45.375 C6.82241871 49.48489286 -1.13220436 49.45711302 -8.81640625 47.87109375 C-13.36246207 46.36149267 -16.35325725 44.03771848 -19.375 40.375 C-19.87 38.89 -19.87 38.89 -20.375 37.375 C-21.035 37.375 -21.695 37.375 -22.375 37.375 C-24.6578729 32.81831322 -24.67625057 28.78807575 -24.625 23.8125 C-24.63273438 23.05775391 -24.64046875 22.30300781 -24.6484375 21.52539062 C-24.6348568 17.67186833 -24.55514902 14.63657215 -22.375 11.375 C-21.715 11.375 -21.055 11.375 -20.375 11.375 C-20.1275 10.6325 -19.88 9.89 -19.625 9.125 C-17.79976469 5.10948231 -15.8542541 2.9909879 -11.7578125 1.28515625 C-7.74989731 0.20681417 -4.1314325 -0.00913731 0 0 Z " fill="#141D2D" transform="translate(227.375,278.625)"/>
<path d="M0 0 C2.62925398 1.46069665 3.66202078 2.70744901 5.25 5.25 C6.05503292 9.31541625 6.20254041 13.48956421 4.1953125 17.19921875 C1.79832816 20.12807831 -0.14891847 22.07713987 -3.95703125 22.48828125 C-10.99770268 22.68884011 -10.99770268 22.68884011 -14.75 20.5 C-17.18239651 17.76355393 -18.71921124 15.73042597 -18.796875 11.99609375 C-18.69890625 11.23425781 -18.6009375 10.47242188 -18.5 9.6875 C-18.41234375 8.92308594 -18.3246875 8.15867187 -18.234375 7.37109375 C-17.75 5.25 -17.75 5.25 -15.75 2.25 C-10.45581764 -1.07425404 -6.03025129 -1.64461399 0 0 Z " fill="#EFEFF0" transform="translate(233.75,291.75)"/>
<path d="M0 0 C3.10039543 1.75494081 5.48825667 3.48825667 8 6 C8.69356035 10.05915319 8.93346201 14.26147038 6.94921875 17.95703125 C4.54038891 20.87747096 2.58914284 22.80311505 -1.20703125 23.2734375 C-8.28722953 23.54942724 -8.28722953 23.54942724 -12 20.6875 C-15.58079888 15.87580151 -16.34517507 13.9698864 -15.54296875 8.15625 C-14.57994288 4.33185949 -12.28271634 2.88463196 -9.1875 0.75 C-5.93364921 -0.36560598 -3.41965225 -0.35375713 0 0 Z " fill="#F0F0F1" transform="translate(311,291)"/>
<path d="M0 0 C3.51732742 1.28517733 5.4770624 2.37247488 7.875 5.25 C9.33017877 8.80710366 9.46888682 11.18192158 9 15 C6.97333762 18.70390021 5.51955484 20.65363011 2 23 C-1.39107371 23.54602034 -4.60874176 23.54627924 -8 23 C-10.82424288 20.80977082 -12.41508603 19.16982793 -14 16 C-14.35017306 10.6598609 -14.46830225 7.33537781 -11 3 C-7.61586915 -0.50499266 -4.73871256 -0.49021164 0 0 Z " fill="#F3F3F4" transform="translate(270,291)"/>
</svg>
