<svg xmlns="http://www.w3.org/2000/svg" xmlns:xlink="http://www.w3.org/1999/xlink" width="500" zoomAndPan="magnify" viewBox="0 0 375 374.999991" height="500" preserveAspectRatio="xMidYMid meet" version="1.0"><defs><g/><clipPath id="0a2208b995"><path d="M 125 228 L 212 228 L 212 328 L 125 328 Z M 125 228 " clip-rule="nonzero"/></clipPath><clipPath id="3136121c27"><path d="M 142.058594 341.871094 L 108.3125 313.304688 L 189.433594 217.46875 L 223.179688 246.035156 Z M 142.058594 341.871094 " clip-rule="nonzero"/></clipPath><clipPath id="6a3ba1fe97"><path d="M 125.183594 327.585938 C 133.125 303.273438 148.9375 265.3125 166.347656 244.742188 C 179.027344 229.761719 196.882812 224 206.195312 231.882812 C 215.507812 239.765625 212.773438 258.324219 200.09375 273.304688 C 182.683594 293.875 147.574219 295.167969 125.183594 327.585938 Z M 125.183594 327.585938 " clip-rule="nonzero"/></clipPath><clipPath id="8149c78a62"><path d="M 0.0390625 0 L 87 0 L 87 99.601562 L 0.0390625 99.601562 Z M 0.0390625 0 " clip-rule="nonzero"/></clipPath><clipPath id="e459ca2e9a"><path d="M 17.058594 113.871094 L -16.6875 85.304688 L 64.433594 -10.53125 L 98.179688 18.035156 Z M 17.058594 113.871094 " clip-rule="nonzero"/></clipPath><clipPath id="3603839690"><path d="M 0.183594 99.585938 C 8.125 75.273438 23.9375 37.3125 41.347656 16.742188 C 54.027344 1.761719 71.882812 -4 81.195312 3.882812 C 90.507812 11.765625 87.773438 30.324219 75.09375 45.304688 C 57.683594 65.875 22.574219 67.167969 0.183594 99.585938 Z M 0.183594 99.585938 " clip-rule="nonzero"/></clipPath><clipPath id="bbb28a20ce"><rect x="0" width="87" y="0" height="100"/></clipPath><clipPath id="abfd81d357"><path d="M 118.152344 162.699219 L 280 162.699219 L 280 292.03125 L 118.152344 292.03125 Z M 118.152344 162.699219 " clip-rule="nonzero"/></clipPath><clipPath id="2445045ae7"><path d="M 199.035156 162.699219 C 154.363281 162.699219 118.152344 191.652344 118.152344 227.363281 C 118.152344 263.078125 154.363281 292.03125 199.035156 292.03125 C 243.703125 292.03125 279.914062 263.078125 279.914062 227.363281 C 279.914062 191.652344 243.703125 162.699219 199.035156 162.699219 Z M 199.035156 162.699219 " clip-rule="nonzero"/></clipPath><clipPath id="8a368602e0"><path d="M 0.152344 0.699219 L 162 0.699219 L 162 130.03125 L 0.152344 130.03125 Z M 0.152344 0.699219 " clip-rule="nonzero"/></clipPath><clipPath id="6f8d1b47ed"><path d="M 81.035156 0.699219 C 36.363281 0.699219 0.152344 29.652344 0.152344 65.363281 C 0.152344 101.078125 36.363281 130.03125 81.035156 130.03125 C 125.703125 130.03125 161.914062 101.078125 161.914062 65.363281 C 161.914062 29.652344 125.703125 0.699219 81.035156 0.699219 Z M 81.035156 0.699219 " clip-rule="nonzero"/></clipPath><clipPath id="82a70bee9b"><rect x="0" width="162" y="0" height="131"/></clipPath></defs><rect x="-37.5" width="450" fill="#ffffff" y="-37.499999" height="449.999989" fill-opacity="1"/><rect x="-37.5" width="450" fill="#121b2c" y="-37.499999" height="449.999989" fill-opacity="1"/><g fill="#f9f9f9" fill-opacity="1"><g transform="translate(45.661562, 341.933759)"><g><path d="M 151.171875 -230.5 C 174.148438 -230.5 194.5 -225.375 212.21875 -215.125 C 229.945312 -204.882812 243.863281 -190.832031 253.96875 -172.96875 C 264.070312 -155.113281 269.125 -134.835938 269.125 -112.140625 C 269.125 -89.429688 264.070312 -69.144531 253.96875 -51.28125 C 243.863281 -33.425781 229.945312 -19.375 212.21875 -9.125 C 194.5 1.113281 174.148438 6.234375 151.171875 6.234375 C 137.609375 6.234375 124.875 4.085938 112.96875 -0.203125 C 101.0625 -4.492188 90.398438 -10.65625 80.984375 -18.6875 L 73.921875 0 L 29.078125 0 L 29.078125 -305.25 L 89.703125 -305.25 L 89.703125 -212.21875 C 98.285156 -218.039062 107.769531 -222.539062 118.15625 -225.71875 C 128.539062 -228.90625 139.546875 -230.5 151.171875 -230.5 Z M 146.1875 -51.078125 C 158.09375 -51.078125 168.613281 -53.707031 177.75 -58.96875 C 186.882812 -64.226562 194.082031 -71.492188 199.34375 -80.765625 C 204.601562 -90.046875 207.234375 -100.503906 207.234375 -112.140625 C 207.234375 -123.765625 204.601562 -134.210938 199.34375 -143.484375 C 194.082031 -152.765625 186.882812 -160.101562 177.75 -165.5 C 168.613281 -170.894531 158.09375 -173.59375 146.1875 -173.59375 C 134.5625 -173.59375 124.109375 -170.894531 114.828125 -165.5 C 105.554688 -160.101562 98.289062 -152.765625 93.03125 -143.484375 C 87.769531 -134.210938 85.140625 -123.765625 85.140625 -112.140625 C 85.140625 -100.503906 87.769531 -90.117188 93.03125 -80.984375 C 98.289062 -71.847656 105.554688 -64.578125 114.828125 -59.171875 C 124.109375 -53.773438 134.5625 -51.078125 146.1875 -51.078125 Z M 146.1875 -51.078125 "/></g></g></g><g clip-path="url(#0a2208b995)"><g clip-path="url(#3136121c27)"><g clip-path="url(#6a3ba1fe97)"><g transform="matrix(1, 0, 0, 1, 125, 228)"><g clip-path="url(#bbb28a20ce)"><g clip-path="url(#8149c78a62)"><g clip-path="url(#e459ca2e9a)"><g clip-path="url(#3603839690)"><path fill="#121b2c" d="M 17.058594 113.871094 L -16.6875 85.304688 L 64.320312 -10.398438 L 98.066406 18.167969 Z M 17.058594 113.871094 " fill-opacity="1" fill-rule="nonzero"/></g></g></g></g></g></g></g></g><g clip-path="url(#abfd81d357)"><g clip-path="url(#2445045ae7)"><g transform="matrix(1, 0, 0, 1, 118, 162)"><g clip-path="url(#82a70bee9b)"><g clip-path="url(#8a368602e0)"><g clip-path="url(#6f8d1b47ed)"><path fill="#121b2c" d="M 0.152344 0.699219 L 161.816406 0.699219 L 161.816406 130.03125 L 0.152344 130.03125 Z M 0.152344 0.699219 " fill-opacity="1" fill-rule="nonzero"/></g></g></g></g></g></g><g fill="#f9f9f9" fill-opacity="1"><g transform="translate(160.299268, 235.041517)"><g><path d="M 12.046875 -14.8125 C 14.253906 -14.8125 16.128906 -14.035156 17.671875 -12.484375 C 19.222656 -10.941406 20 -9.066406 20 -6.859375 C 20 -4.679688 19.222656 -2.820312 17.671875 -1.28125 C 16.128906 0.257812 14.253906 1.03125 12.046875 1.03125 C 9.878906 1.03125 8.019531 0.257812 6.46875 -1.28125 C 4.925781 -2.820312 4.15625 -4.679688 4.15625 -6.859375 C 4.15625 -9.066406 4.925781 -10.941406 6.46875 -12.484375 C 8.019531 -14.035156 9.878906 -14.8125 12.046875 -14.8125 Z M 12.046875 -14.8125 "/></g></g></g><g fill="#f9f9f9" fill-opacity="1"><g transform="translate(186.945873, 235.041517)"><g><path d="M 12.046875 -14.8125 C 14.253906 -14.8125 16.128906 -14.035156 17.671875 -12.484375 C 19.222656 -10.941406 20 -9.066406 20 -6.859375 C 20 -4.679688 19.222656 -2.820312 17.671875 -1.28125 C 16.128906 0.257812 14.253906 1.03125 12.046875 1.03125 C 9.878906 1.03125 8.019531 0.257812 6.46875 -1.28125 C 4.925781 -2.820312 4.15625 -4.679688 4.15625 -6.859375 C 4.15625 -9.066406 4.925781 -10.941406 6.46875 -12.484375 C 8.019531 -14.035156 9.878906 -14.8125 12.046875 -14.8125 Z M 12.046875 -14.8125 "/></g></g></g><g fill="#f9f9f9" fill-opacity="1"><g transform="translate(213.592478, 235.041517)"><g><path d="M 12.046875 -14.8125 C 14.253906 -14.8125 16.128906 -14.035156 17.671875 -12.484375 C 19.222656 -10.941406 20 -9.066406 20 -6.859375 C 20 -4.679688 19.222656 -2.820312 17.671875 -1.28125 C 16.128906 0.257812 14.253906 1.03125 12.046875 1.03125 C 9.878906 1.03125 8.019531 0.257812 6.46875 -1.28125 C 4.925781 -2.820312 4.15625 -4.679688 4.15625 -6.859375 C 4.15625 -9.066406 4.925781 -10.941406 6.46875 -12.484375 C 8.019531 -14.035156 9.878906 -14.8125 12.046875 -14.8125 Z M 12.046875 -14.8125 "/></g></g></g></svg>